<svg width="45" height="41" viewBox="0 0 45 41" fill="none" xmlns="http://www.w3.org/2000/svg">
<path d="M10.4141 34.0366H16.9939H38.2317H39.524C40.7111 34.0366 41.8496 33.565 42.689 32.7256C43.5284 31.8862 44 30.7477 44 29.5606V12.7956C44 12.1044 43.8728 11.4192 43.6246 10.7741C43.0311 9.23097 41.7895 8.02663 40.229 7.48046L39.7337 7.30712C38.269 6.79447 37.0698 5.71796 36.4026 4.31689C35.4378 2.29067 33.3936 1 31.1494 1H24.8668C22.7547 1 20.8045 2.13173 19.7566 3.96555C18.8422 5.56582 17.2309 6.64532 15.4031 6.88226L6.30643 8.06145C4.91093 8.24235 3.6234 8.90799 2.66893 9.94199L2.59118 10.0262C1.5681 11.1346 1 12.5876 1 14.0959V33.1096C1 33.7031 1.23579 34.2724 1.65549 34.6921C2.07519 35.1118 2.64443 35.3476 3.23798 35.3476H6.79317C7.45476 35.3476 8.09541 35.1156 8.60366 34.6921C9.11191 34.2685 9.75256 34.0366 10.4141 34.0366Z" fill="#D6D6D6" stroke="black" stroke-width="2"/>
<circle cx="27.7439" cy="27.7439" r="12.1098" fill="#C4C4C4" stroke="black" stroke-width="2"/>
<circle cx="28" cy="28" r="7" fill="#56C2FF" stroke="black" stroke-width="2"/>
<path d="M9 34L9 14" stroke="black" stroke-width="2"/>
<circle cx="9" cy="14" r="1" fill="black"/>
</svg>
