<svg width="45" height="36" viewBox="0 0 45 36" fill="none" xmlns="http://www.w3.org/2000/svg">
<rect x="1" y="1" width="43" height="34" rx="1" fill="#BCEFFF" stroke="black" stroke-width="2"/>
<path d="M10.5851 23.2039L15.2419 16.8675C15.4317 16.6093 15.8121 16.5938 16.0223 16.8358L19.9895 21.4035C20.1383 21.5747 20.1531 21.8246 20.0257 22.0122L26.4233 12.6077C26.6218 12.316 27.0517 12.316 27.2501 12.6077L34.4685 23.2188C34.6944 23.5507 34.4566 24 34.0551 24H18.6735H10.988C10.5782 24 10.3424 23.5341 10.5851 23.2039Z" fill="#75FFAC"/>
<path d="M18.6735 24L20.0254 22.0126C20.1531 21.8249 20.1384 21.5748 19.9895 21.4035L16.0223 16.8358C15.8121 16.5938 15.4317 16.6093 15.2419 16.8675L10.5851 23.2039C10.3424 23.5341 10.5782 24 10.988 24H18.6735ZM18.6735 24H34.0551C34.4566 24 34.6944 23.5507 34.4685 23.2188L27.2501 12.6077C27.0517 12.316 26.6218 12.316 26.4233 12.6077L18.6735 24Z" stroke="black" stroke-width="2"/>
<circle cx="21" cy="11" r="2" fill="black"/>
</svg>
