<?xml version="1.0" encoding="UTF-8" standalone="no"?><!-- Generator: Gravit.io --><svg xmlns="http://www.w3.org/2000/svg" xmlns:xlink="http://www.w3.org/1999/xlink" style="isolation:isolate" viewBox="0 0 200 200" width="200pt" height="200pt"><radialGradient id="_rgradient_10" fx="0.5" fy="0.5" cx="0.5" cy="0.5" r="0.5" gradientTransform="matrix(194,0,0,194,3,3)" gradientUnits="userSpaceOnUse"><stop offset="0%" stop-opacity="1" style="stop-color:rgb(255,188,43)"/><stop offset="100%" stop-opacity="1" style="stop-color:rgb(255,163,82)"/></radialGradient><path d=" M 3 100 C 3 46.464 46.464 3 100 3 C 153.536 3 197 46.464 197 100 C 197 153.536 153.536 197 100 197 C 46.464 197 3 153.536 3 100 Z " fill="url(#_rgradient_10)"/><path d=" M 68.05 43.84 L 92.39 68.17 C 93.14 68.92 93.56 69.94 93.56 71 C 93.56 72.06 93.14 73.08 92.39 73.83 C 91.64 74.58 90.62 75 89.56 75 C 88.5 75 87.48 74.58 86.73 73.83 L 62.4 49.5 C 61.65 48.75 61.22 47.73 61.22 46.67 C 61.22 45.61 61.65 44.59 62.4 43.84 C 63.15 43.09 64.16 42.67 65.22 42.67 C 66.28 42.67 67.3 43.09 68.05 43.84 Z " fill="rgb(156,96,58)"/><path d=" M 113.27 73.83 C 112.52 74.58 111.5 75 110.44 75 C 109.38 75 108.36 74.58 107.61 73.83 C 106.86 73.08 106.44 72.06 106.44 71 C 106.44 69.94 106.86 68.92 107.61 68.17 L 131.95 43.84 C 132.7 43.09 133.72 42.67 134.78 42.67 C 135.84 42.67 136.85 43.09 137.6 43.84 C 138.35 44.59 138.78 45.61 138.78 46.67 C 138.78 47.73 138.35 48.75 137.6 49.5 L 113.27 73.83 Z " fill="rgb(156,96,58)"/><radialGradient id="_rgradient_11" fx="0.5" fy="0.5" cx="0.5" cy="0.5" r="0.5" gradientTransform="matrix(92.634,-0.408,-1.281,73.279,18.106,45.347)" gradientUnits="userSpaceOnUse"><stop offset="0%" stop-opacity="1" style="stop-color:rgb(159,97,58)"/><stop offset="100%" stop-opacity="1" style="stop-color:rgb(121,81,55)"/></radialGradient><path d=" M 45.564 81.782 C 45.564 71.728 53.728 63.564 63.782 63.564 C 73.837 63.564 82 71.728 82 81.782 C 82 91.837 73.837 100 63.782 100 C 53.728 100 45.564 91.837 45.564 81.782 Z " fill="url(#_rgradient_11)"/><radialGradient id="_rgradient_12" fx="0.5" fy="0.5" cx="0.5" cy="0.5" r="0.5" gradientTransform="matrix(86.904,5.401,-0.831,82.784,92.984,37.69)" gradientUnits="userSpaceOnUse"><stop offset="0%" stop-opacity="1" style="stop-color:rgb(159,97,58)"/><stop offset="100%" stop-opacity="1" style="stop-color:rgb(121,81,55)"/></radialGradient><path d=" M 117.802 81.782 C 117.802 71.728 125.965 63.564 136.02 63.564 C 146.075 63.564 154.238 71.728 154.238 81.782 C 154.238 91.837 146.075 100 136.02 100 C 125.965 100 117.802 91.837 117.802 81.782 Z " fill="url(#_rgradient_12)"/><path d=" M 64.35 157.98 C 63.24 159.12 61.73 159.78 60.14 159.81 C 58.55 159.83 57.01 159.23 55.86 158.12 C 54.72 157.01 54.06 155.5 54.04 153.91 C 54.01 152.32 54.62 150.78 55.73 149.64 C 58.57 146.7 61.74 144.09 65.17 141.86 C 68.57 139.66 72.18 137.81 75.96 136.35 C 83.52 133.45 91.55 131.97 99.65 132 C 107.79 131.98 115.87 133.46 123.49 136.34 C 127.31 137.8 130.99 139.63 134.45 141.82 C 137.96 144.03 141.23 146.62 144.18 149.54 C 145.31 150.66 145.95 152.18 145.96 153.77 C 145.97 155.36 145.35 156.89 144.23 158.03 C 143.11 159.16 141.59 159.8 140 159.81 C 138.41 159.82 136.88 159.2 135.75 158.08 C 133.41 155.77 130.83 153.72 128.05 151.97 C 125.26 150.21 122.31 148.73 119.23 147.56 C 112.97 145.19 106.33 143.98 99.64 144 C 93.02 143.97 86.45 145.18 80.27 147.55 C 77.27 148.71 74.4 150.18 71.71 151.92 C 69.03 153.66 66.57 155.69 64.35 157.98 Z " fill="rgb(158,96,58)"/></svg>