<?xml version="1.0" encoding="UTF-8" standalone="no"?><!-- Generator: Gravit.io --><svg xmlns="http://www.w3.org/2000/svg" xmlns:xlink="http://www.w3.org/1999/xlink" style="isolation:isolate" viewBox="0 0 200 200" width="200pt" height="200pt"><radialGradient id="_rgradient_4" fx="0.5" fy="0.5" cx="0.5" cy="0.5" r="0.5" gradientTransform="matrix(194,0,0,194,3,3)" gradientUnits="userSpaceOnUse"><stop offset="0%" stop-opacity="1" style="stop-color:rgb(255,209,43)"/><stop offset="100%" stop-opacity="1" style="stop-color:rgb(255,189,82)"/></radialGradient><path d=" M 3 100 C 3 46.464 46.464 3 100 3 C 153.536 3 197 46.464 197 100 C 197 153.536 153.536 197 100 197 C 46.464 197 3 153.536 3 100 Z " fill="url(#_rgradient_4)"/><radialGradient id="_rgradient_5" fx="0.5" fy="0.5" cx="0.5" cy="0.5" r="0.5" gradientTransform="matrix(116.951,-0.515,-1.617,92.515,-3.142,25)" gradientUnits="userSpaceOnUse"><stop offset="0%" stop-opacity="1" style="stop-color:rgb(159,97,58)"/><stop offset="100%" stop-opacity="1" style="stop-color:rgb(121,81,55)"/></radialGradient><path d=" M 31.525 71 C 31.525 58.306 41.831 48 54.525 48 C 67.219 48 77.525 58.306 77.525 71 C 77.525 83.694 67.219 94 54.525 94 C 41.831 94 31.525 83.694 31.525 71 Z " fill="url(#_rgradient_5)"/><radialGradient id="_rgradient_6" fx="0.5" fy="0.5" cx="0.5" cy="0.5" r="0.5" gradientTransform="matrix(109.716,6.818,-1.049,104.515,91.142,15.333)" gradientUnits="userSpaceOnUse"><stop offset="0%" stop-opacity="1" style="stop-color:rgb(159,97,58)"/><stop offset="100%" stop-opacity="1" style="stop-color:rgb(121,81,55)"/></radialGradient><path d=" M 122.475 71 C 122.475 58.306 132.781 48 145.475 48 C 158.169 48 168.475 58.306 168.475 71 C 168.475 83.694 158.169 94 145.475 94 C 132.781 94 122.475 83.694 122.475 71 Z " fill="url(#_rgradient_6)"/><path d=" M 131.24 136 C 132.83 136 134.36 136.63 135.48 137.76 C 136.61 138.88 137.24 140.41 137.24 142 C 137.24 143.59 136.61 145.12 135.48 146.24 C 134.36 147.37 132.83 148 131.24 148 L 68.76 148 C 67.17 148 65.64 147.37 64.52 146.24 C 63.39 145.12 62.76 143.59 62.76 142 C 62.76 140.41 63.39 138.88 64.52 137.76 C 65.64 136.63 67.17 136 68.76 136 L 131.24 136 Z " fill="rgb(158,96,58)"/></svg>