<?xml version="1.0" encoding="UTF-8" standalone="no"?><!-- Generator: Gravit.io --><svg xmlns="http://www.w3.org/2000/svg" xmlns:xlink="http://www.w3.org/1999/xlink" style="isolation:isolate" viewBox="0 0 200 200" width="200pt" height="200pt"><radialGradient id="_rgradient_0" fx="0.5" fy="0.5" cx="0.5" cy="0.5" r="0.5" gradientTransform="matrix(194,0,0,194,3,3)" gradientUnits="userSpaceOnUse"><stop offset="0%" stop-opacity="1" style="stop-color:rgb(255,209,43)"/><stop offset="100%" stop-opacity="1" style="stop-color:rgb(255,189,82)"/></radialGradient><path d=" M 3 100 C 3 46.464 46.464 3 100 3 C 153.536 3 197 46.464 197 100 C 197 153.536 153.536 197 100 197 C 46.464 197 3 153.536 3 100 Z " fill="url(#_rgradient_0)"/><path d=" M 147.945 53.525 Q 156.884 44.805 168.665 51.054 Q 177.419 57.996 176.924 67.642 C 176.429 77.288 166.539 85.503 161.131 89.152 C 155.724 92.801 138.451 99.874 135.492 100 Q 123.541 87.521 119.396 78.972 C 115.251 70.423 112.574 60.763 114.809 53.673 C 117.043 46.582 123.205 42.299 128.802 41.375 C 134.398 40.451 140.994 42.971 143.918 46.094 Q 146.842 49.218 147.945 53.525 Z " fill="rgb(255,106,106)"/><path d=" M 52.055 53.525 Q 43.116 44.805 31.335 51.054 Q 22.581 57.996 23.076 67.642 C 23.571 77.288 33.461 85.503 38.869 89.152 C 44.276 92.801 61.549 99.874 64.508 100 Q 76.459 87.521 80.604 78.972 C 84.749 70.423 87.426 60.763 85.191 53.673 C 82.957 46.582 76.795 42.299 71.198 41.375 C 65.602 40.451 59.006 42.971 56.082 46.094 Q 53.158 49.218 52.055 53.525 Z " fill="rgb(255,106,106)"/><path d=" M 44.005 119.925 L 155.995 119.925 Q 145.433 175.378 100 175.92 Q 53.906 176.469 44.005 119.925 Z " fill="rgb(255,255,255)"/><path d=" M 44.005 119.925 L 155.995 119.925 Q 145.433 175.378 100 175.92 Q 53.906 176.469 44.005 119.925 Z  M 53.91 127.92 L 145.92 127.92 C 145.54 129.31 145.13 130.68 144.7 132.05 C 143.6 135.51 142.26 138.88 140.67 142.14 C 139.36 144.81 137.87 147.38 136.19 149.82 C 134.77 151.88 133.19 153.81 131.45 155.59 C 130.5 156.57 129.51 157.49 128.47 158.37 C 127.47 159.21 126.42 160 125.34 160.73 C 124.26 161.46 123.15 162.13 122.01 162.75 C 120.84 163.38 119.64 163.94 118.41 164.45 C 115.78 165.54 113.04 166.35 110.23 166.89 C 106.83 167.53 103.37 167.88 99.9 167.92 C 96.36 167.96 92.83 167.69 89.34 167.09 C 86.51 166.61 83.75 165.84 81.09 164.78 C 79.87 164.29 78.67 163.73 77.5 163.12 C 76.36 162.52 75.25 161.86 74.18 161.14 C 73.1 160.41 72.07 159.63 71.07 158.8 C 70.04 157.93 69.05 157 68.11 156.03 C 66.3 154.15 64.66 152.1 63.22 149.92 C 61.46 147.26 59.92 144.46 58.6 141.55 C 57.16 138.36 55.94 135.07 54.96 131.71 C 54.59 130.46 54.24 129.19 53.91 127.92 Z " fill-rule="evenodd" fill="rgb(156,95,57)"/><path d=" M 69 159.819 Q 98.938 133.772 133 156.819 Q 102.563 186.741 69 159.819 Z " fill="rgb(255,106,106)"/><path d=" M 44.005 119.925 L 155.995 119.925 Q 145.433 175.378 100 175.92 Q 53.906 176.469 44.005 119.925 Z  M 53.91 127.92 L 145.92 127.92 C 145.54 129.31 145.13 130.68 144.7 132.05 C 143.6 135.51 142.26 138.88 140.67 142.14 C 139.36 144.81 137.87 147.38 136.19 149.82 C 134.77 151.88 133.19 153.81 131.45 155.59 C 130.5 156.57 129.51 157.49 128.47 158.37 C 127.47 159.21 126.42 160 125.34 160.73 C 124.26 161.46 123.15 162.13 122.01 162.75 C 120.84 163.38 119.64 163.94 118.41 164.45 C 115.78 165.54 113.04 166.35 110.23 166.89 C 106.83 167.53 103.37 167.88 99.9 167.92 C 96.36 167.96 92.83 167.69 89.34 167.09 C 86.51 166.61 83.75 165.84 81.09 164.78 C 79.87 164.29 78.67 163.73 77.5 163.12 C 76.36 162.52 75.25 161.86 74.18 161.14 C 73.1 160.41 72.07 159.63 71.07 158.8 C 70.04 157.93 69.05 157 68.11 156.03 C 66.3 154.15 64.66 152.1 63.22 149.92 C 61.46 147.26 59.92 144.46 58.6 141.55 C 57.16 138.36 55.94 135.07 54.96 131.71 C 54.59 130.46 54.24 129.19 53.91 127.92 Z " fill-rule="evenodd" fill="rgb(156,95,57)"/></svg>